<svg width="46" height="46" viewBox="0 0 46 46" fill="none" xmlns="http://www.w3.org/2000/svg">
<g filter="url(#filter0_dd_38_75)">
<circle cx="23" cy="22" r="20" fill="#070148"/>
<path fill-rule="evenodd" clip-rule="evenodd" d="M24.6 15.2686L21.4 18.4686V28.7313L24.6 25.5313V15.2686Z" fill="white"/>
<path fill-rule="evenodd" clip-rule="evenodd" d="M17.9657 16.6342C17.7369 16.4054 17.3928 16.337 17.0939 16.4608C16.7949 16.5846 16.6 16.8764 16.6 17.1999V25.1999C16.6 25.4121 16.6843 25.6156 16.8343 25.7656L19.8 28.7313V18.4686L17.9657 16.6342Z" fill="white"/>
<path fill-rule="evenodd" clip-rule="evenodd" d="M29.1657 18.2342L26.2 15.2686V25.5313L28.0343 27.3656C28.2631 27.5944 28.6072 27.6629 28.9061 27.539C29.2051 27.4152 29.4 27.1235 29.4 26.7999V18.7999C29.4 18.5878 29.3157 18.3843 29.1657 18.2342Z" fill="white"/>
</g>
<defs>
<filter id="filter0_dd_38_75" x="0" y="0" width="46" height="46" filterUnits="userSpaceOnUse" color-interpolation-filters="sRGB">
<feFlood flood-opacity="0" result="BackgroundImageFix"/>
<feColorMatrix in="SourceAlpha" type="matrix" values="0 0 0 0 0 0 0 0 0 0 0 0 0 0 0 0 0 0 127 0" result="hardAlpha"/>
<feOffset dy="1"/>
<feGaussianBlur stdDeviation="1"/>
<feColorMatrix type="matrix" values="0 0 0 0 0 0 0 0 0 0 0 0 0 0 0 0 0 0 0.06 0"/>
<feBlend mode="normal" in2="BackgroundImageFix" result="effect1_dropShadow_38_75"/>
<feColorMatrix in="SourceAlpha" type="matrix" values="0 0 0 0 0 0 0 0 0 0 0 0 0 0 0 0 0 0 127 0" result="hardAlpha"/>
<feOffset dy="1"/>
<feGaussianBlur stdDeviation="1.5"/>
<feColorMatrix type="matrix" values="0 0 0 0 0 0 0 0 0 0 0 0 0 0 0 0 0 0 0.1 0"/>
<feBlend mode="normal" in2="effect1_dropShadow_38_75" result="effect2_dropShadow_38_75"/>
<feBlend mode="normal" in="SourceGraphic" in2="effect2_dropShadow_38_75" result="shape"/>
</filter>
</defs>
</svg>
